<?xml version="1.0" encoding="utf-8"?>
<!-- Generator: Adobe Illustrator 26.2.1, SVG Export Plug-In . SVG Version: 6.00 Build 0)  -->
<svg version="1.1" id="Ebene_1" xmlns="http://www.w3.org/2000/svg" xmlns:xlink="http://www.w3.org/1999/xlink" x="0px" y="0px"
	 viewBox="0 0 1050 300" style="enable-background:new 0 0 1050 300;" xml:space="preserve">
<style type="text/css">
	.st0{fill:#A7F413;}
	.st1{fill:#FEFEFE;}
</style>
<g>
	<g>
		<path class="st0" d="M212.6,167.5c0.1,1.4,0.3,2.8,0.3,4.2c0.1,1.5,0.1,3.1,0,4.6c-0.1,1.3-0.1,2.6-0.3,3.9
			c-0.3,2.6-0.7,5.2-1.5,7.7c-0.5,1.4-1.1,2.7-2,3.7c-0.8,0.9-1.8,1.4-2.9,1.4c-0.7,0-1.5,0-2.2,0h-61.6c-5.8,0-17.5,0-23.2,0
			c-0.8,0-1.7-0.1-2.5-0.5c-0.9-0.5-1.6-1.3-2.2-2.3c-0.9-1.5-1.4-3.2-1.8-5c-0.3-1.5-0.5-3-0.7-4.5c-0.1-1.4-0.3-2.8-0.4-4.2
			c-0.1-1.5-0.1-3.1,0-4.6c0.1-1.3,0.1-2.6,0.3-3.9c0.3-2.6,0.7-5.2,1.5-7.7c0.5-1.4,1.1-2.7,2-3.7c0.8-0.9,1.8-1.4,2.9-1.4
			c0.7,0,1.5,0,2.2,0h22c5.8,0,57.1,0,62.8,0c0.8,0,1.7,0.1,2.5,0.5c1,0.5,1.6,1.3,2.2,2.3c0.9,1.5,1.4,3.2,1.8,5
			C212.2,164.4,212.5,165.9,212.6,167.5z"/>
		<path class="st0" d="M136.1,252.7l-40.6,40.6c-12,0-22.8,0-31.8,0c-6.5,0-13.1-0.7-19.3-3.1c-7.3-2.8-12.7-8-17.3-14.3
			c-6.9-9.5-11.2-20.1-14.2-31.4c-2.4-9.3-4.2-18.7-5.4-28.2c-1.1-8.8-2.1-17.7-2.7-26.6c-0.7-9.7-0.8-19.4-0.2-29.1
			c0.5-8.1,1.1-16.2,2.2-24.3c2.2-16.6,5.6-33,11.8-48.7C22,78.8,26.9,70.8,34,64.3c6.3-5.8,13.8-8.7,22.3-9C62,55,67.7,55,73.5,55
			c41.4,0,151.2,0,192.6,0c0,0,83.2-50.1,117-50.1l-89.8,90.7c-12.3,0-22.9,0-28.9,0c-6.9,0-13.8-0.3-20.7-0.3l0,0
			c-9.8,0.1-65.2,0.2-74.7,0.4c-17.7,0.3-35.4,0.6-53.2,1c-9,0.2-17.9,0.7-26.9,1.1c-6.4,0.3-12.8,0.4-19.2,0.7
			c-4.5,0.2-8.2,2.2-10.5,6.1c-1.4,2.4-2.5,5.1-3.5,7.7c-3.5,9.4-5.4,19.2-6.7,29.2c-1.3,9.7-2.2,19.5-2.5,29.3
			c-0.5,16.3,0.6,32.5,3.8,48.5C51.9,226.7,54,234,57,241c2.5,5.7,6.9,8.8,12.9,9.3c5.1,0.5,10.3,0.9,15.4,1.1
			c11.6,0.5,23.1,1.1,34.7,1.2C123.9,252.7,129.4,252.7,136.1,252.7z"/>
		<path class="st1" d="M172.4,252.8c12.3,0,22.9,0,28.9,0c6.9,0,13.8,0.3,20.7,0.3v0c9.8-0.1,65.2-0.2,74.7-0.4
			c17.7-0.3,35.4-0.6,53.2-1c9-0.2,17.9-0.7,26.9-1.1c6.4-0.3,12.8-0.4,19.2-0.7c4.5-0.2,8.2-2.2,10.5-6.1c1.4-2.4,2.5-5.1,3.5-7.7
			c3.5-9.4,5.4-19.2,6.7-29.2c1.3-9.7,2.2-19.5,2.5-29.3c0.5-16.3-0.6-32.5-3.8-48.5c-1.5-7.5-3.6-14.8-6.6-21.8
			c-2.5-5.7-6.9-8.8-12.9-9.3c-5.1-0.5-10.3-0.9-15.4-1.1c-11.6-0.5-23.1-1.1-34.7-1.2c-3.8,0-9.3-0.1-15.9-0.1L370.2,55
			c12,0,22.8,0,31.8,0c6.5,0,13.1,0.7,19.3,3.1c7.3,2.8,12.7,8,17.3,14.3c6.9,9.5,11.2,20.1,14.2,31.4c2.4,9.3,4.2,18.7,5.4,28.2
			c1.1,8.8,2.1,17.7,2.7,26.6c0.7,9.7,0.8,19.4,0.2,29.1c-0.5,8.1-1.1,16.2-2.2,24.3c-2.2,16.6-5.6,33-11.8,48.7
			c-3.5,8.8-8.4,16.9-15.5,23.4c-6.3,5.8-13.8,8.7-22.3,9c-5.7,0.2-11.5,0.2-17.2,0.2c-41.4,0-218.1,1.8-259.5,1.8"/>
		<path class="st1" d="M261.6,155.2h22c5.8,0,57.1,0,62.8,0c0.8,0,1.7,0.1,2.5,0.5c1,0.5,1.6,1.3,2.2,2.3c0.9,1.5,1.4,3.2,1.8,5
			c0.3,1.5,0.5,3,0.7,4.5c0.1,1.4,0.3,2.8,0.3,4.2c0.1,1.5,0.1,3.1,0,4.6c-0.1,1.3-0.1,2.6-0.3,3.9c-0.3,2.6-0.7,5.2-1.5,7.7
			c-0.5,1.4-1.1,2.7-2,3.7c-0.8,0.9-1.8,1.4-2.9,1.4c-0.7,0-1.5,0-2.2,0h-61.6c-5.8,0-17.5,0-23.2,0c-0.8,0-1.7-0.1-2.5-0.5
			c-0.9-0.5-1.6-1.3-2.2-2.3c-0.9-1.5-1.4-3.2-1.8-5c-0.3-1.5-0.5-3-0.7-4.5c-0.1-1.4-0.3-2.8-0.4-4.2c-0.1-1.5-0.1-3.1,0-4.6
			c0.1-1.3,0.1-2.6,0.3-3.9c0.3-2.6,0.7-5.2,1.5-7.7c0.5-1.4,1.1-2.7,2-3.7c0.8-0.9,1.8-1.4,2.9-1.4
			C260.1,155.2,260.9,155.2,261.6,155.2z"/>
	</g>
	<g>
		<g>
			<polygon class="st1" points="525.6,172.2 525.6,96.4 581.3,96.4 581.3,112.6 543.5,112.6 543.5,125.9 574.5,125.9 574.5,141.7 
				543.5,141.7 543.5,156 581.3,156 581.3,172.2 			"/>
			<polygon class="st1" points="630.6,172.7 607.9,96.4 626.8,96.4 641.6,150.7 656.4,96.4 675.4,96.4 652.8,172.7 			"/>
			<polygon class="st1" points="703.2,172.2 703.2,96.4 758.9,96.4 758.9,112.6 721.1,112.6 721.1,125.9 752.1,125.9 752.1,141.7 
				721.1,141.7 721.1,156 758.9,156 758.9,172.2 			"/>
			<path class="st1" d="M835.1,172.2l-15.4-25h-11v25h-18.3V96.4h58.7l0.5,1.1c2.5,6,4.1,15.2,4.1,24.5c0,8.7-1.4,17.7-3.8,23.9
				l-0.4,1.2h-9.8l15.6,25H835.1z M834.6,131.6c0.5-2.4,0.8-5.8,0.8-9.7c0-4.1-0.3-7.4-0.8-9.7h-25.9v19.5H834.6z"/>
			<path class="st1" d="M916.8,173.6c-10.4,0-21.9-1.4-30.7-3.7l-1.4-0.4V99l1.4-0.4c8.8-2.3,20.2-3.7,30.7-3.7
				c10.5,0,22,1.4,30.8,3.7L949,99v70.6l-1.4,0.4C938.8,172.2,927.3,173.6,916.8,173.6z M930.7,157.3v-46.1h-27.6v46.1H930.7z"/>
			<polygon class="st1" points="1027.6,172.2 999.9,128.4 999.9,172.2 981.8,172.2 981.8,96.4 1000.2,96.4 1027.9,140.2 
				1027.9,96.4 1045.9,96.4 1045.9,172.2 			"/>
		</g>
		<g>
			<path class="st0" d="M557.1,240.5v8h-31.5V203h9.2v37.5H557.1z"/>
			<path class="st0" d="M585.7,248.5V203h9.3v45.5H585.7z"/>
			<path class="st0" d="M635,210.9v10.7h18.6v7.7H635v19.2h-9.2V203h32.2v7.9H635z"/>
			<path class="st0" d="M696.3,210.9v10.7h19.6v7.7h-19.6v11.3h23.9v7.9h-32.8V203h32.8v7.9H696.3z"/>
		</g>
	</g>
</g>
</svg>
