<?xml version="1.0" encoding="UTF-8"?><svg id="b" xmlns="http://www.w3.org/2000/svg" viewBox="0 0 647.11 180.28"><defs><style>.d{fill:#A7F413;}.e{fill:#122131;}</style></defs><g id="c"><g><g><path class="d" d="M129.54,100.98c.09,.88,.16,1.75,.21,2.63,.06,.95,.07,1.91,.01,2.86-.03,.8-.08,1.61-.17,2.4-.18,1.64-.45,3.25-.94,4.8-.28,.88-.69,1.66-1.25,2.3-.49,.57-1.1,.86-1.79,.9-.46,.02-.92,.02-1.38,.02h-38.24c-3.58,0-10.84,0-14.42-.01-.52,0-1.04-.06-1.55-.29-.58-.28-1.02-.8-1.38-1.42-.55-.93-.9-1.99-1.15-3.09-.19-.92-.33-1.85-.43-2.79-.09-.88-.17-1.75-.22-2.63-.06-.95-.06-1.91-.01-2.86,.04-.8,.09-1.61,.18-2.4,.18-1.64,.45-3.25,.94-4.8,.28-.88,.67-1.66,1.24-2.3,.51-.57,1.11-.86,1.79-.9,.46-.02,.92-.02,1.38-.02h13.63c3.57,0,35.46,0,39.03,.01,.53,0,1.06,.06,1.55,.29,.6,.28,1.02,.8,1.39,1.42,.55,.93,.9,1.99,1.13,3.09,.2,.92,.34,1.85,.44,2.79Z"/><path class="d" d="M81.99,153.95l-25.19,25.19c-7.44,0-14.19-.01-19.78-.01-4.05-.01-8.14-.42-12.02-1.9-4.56-1.74-7.92-4.99-10.75-8.87-4.28-5.89-6.99-12.5-8.83-19.5-1.52-5.77-2.61-11.62-3.35-17.53-.69-5.49-1.29-11.01-1.71-16.52-.45-6.01-.51-12.04-.11-18.06,.33-5.04,.69-10.09,1.36-15.09,1.39-10.32,3.48-20.51,7.33-30.22,2.18-5.49,5.25-10.48,9.63-14.53,3.89-3.59,8.56-5.42,13.84-5.62,3.56-.13,7.13-.15,10.7-.15,25.73-.01,93.89-.01,119.61-.01C162.73,31.12,214.39-.01,235.42,0l-55.79,56.3c-7.63,0-14.21,.01-17.94,.01-4.28,0-8.58-.21-12.87-.19h0c-6.09,.06-40.5,.13-46.39,.22-11.01,.17-22.01,.37-33.02,.64-5.57,.13-11.14,.46-16.7,.69-3.96,.16-7.94,.26-11.91,.46-2.77,.15-5.07,1.35-6.5,3.76-.89,1.49-1.57,3.14-2.17,4.78-2.16,5.86-3.36,11.95-4.19,18.14-.82,6.04-1.39,12.12-1.56,18.22-.29,10.12,.38,20.17,2.38,30.11,.93,4.65,2.22,9.19,4.12,13.54,1.54,3.56,4.26,5.44,8.04,5.77,3.19,.29,6.37,.54,9.57,.67,7.19,.3,14.38,.66,21.58,.74,2.34,.02,5.78,.04,9.91,.07Z"/><path class="e" d="M104.56,153.98c7.63,0,14.21-.01,17.94-.01,4.28,0,8.58,.21,12.87,.19h0c6.09-.05,40.5-.13,46.39-.22,11.01-.17,22.01-.37,33.02-.64,5.57-.13,11.14-.46,16.7-.69,3.96-.16,7.94-.26,11.91-.46,2.77-.15,5.07-1.35,6.5-3.76,.89-1.49,1.57-3.14,2.17-4.78,2.16-5.86,3.36-11.95,4.19-18.14,.82-6.04,1.39-12.12,1.56-18.22,.29-10.12-.38-20.17-2.38-30.11-.93-4.65-2.22-9.19-4.12-13.54-1.54-3.56-4.26-5.44-8.04-5.77-3.19-.29-6.37-.54-9.57-.67-7.19-.3-14.38-.66-21.58-.74-2.34-.02-5.78-.04-9.91-.07l25.19-25.19c7.44,0,14.19,.01,19.78,.01,4.05,.01,8.14,.42,12.02,1.9,4.56,1.74,7.92,4.99,10.75,8.87,4.28,5.89,6.99,12.5,8.83,19.5,1.52,5.77,2.61,11.62,3.35,17.53,.69,5.49,1.29,11.01,1.71,16.52,.45,6.01,.51,12.04,.11,18.06-.33,5.04-.69,10.09-1.36,15.09-1.39,10.32-3.48,20.51-7.33,30.22-2.18,5.49-5.25,10.48-9.63,14.53-3.89,3.59-8.56,5.42-13.84,5.62-3.56,.13-7.13,.15-10.7,.15-25.73,.01-135.45,1.13-161.17,1.13"/><path class="e" d="M159.96,93.39h13.63c3.57,0,35.46,0,39.03,.01,.53,0,1.06,.06,1.55,.29,.6,.28,1.02,.8,1.39,1.42,.55,.93,.9,1.99,1.13,3.09,.2,.92,.34,1.85,.44,2.79,.09,.88,.16,1.75,.21,2.63,.06,.95,.07,1.91,.01,2.86-.03,.8-.08,1.61-.17,2.4-.18,1.64-.45,3.25-.94,4.8-.28,.88-.69,1.66-1.25,2.3-.49,.57-1.1,.86-1.79,.9-.46,.02-.92,.02-1.38,.02h-38.24c-3.58,0-10.84,0-14.42-.01-.52,0-1.04-.06-1.55-.29-.58-.28-1.02-.8-1.38-1.42-.55-.93-.9-1.99-1.15-3.09-.19-.92-.33-1.85-.43-2.79-.09-.88-.17-1.75-.22-2.63-.06-.95-.06-1.91-.01-2.86,.04-.8,.09-1.61,.18-2.4,.18-1.64,.45-3.25,.94-4.8,.28-.88,.67-1.66,1.24-2.3,.51-.57,1.11-.86,1.79-.9,.46-.02,.92-.02,1.38-.02Z"/></g><g><g><polygon class="e" points="323.94 103.91 323.94 56.85 358.52 56.85 358.52 66.9 335.02 66.9 335.02 75.16 354.29 75.16 354.29 84.96 335.02 84.96 335.02 93.85 358.52 93.85 358.52 103.91 323.94 103.91"/><polygon class="e" points="389.14 104.23 375.03 56.85 386.8 56.85 396 90.58 405.19 56.85 416.97 56.85 402.92 104.23 389.14 104.23"/><polygon class="e" points="434.24 103.91 434.24 56.85 468.82 56.85 468.82 66.9 445.32 66.9 445.32 75.16 464.6 75.16 464.6 84.96 445.32 84.96 445.32 93.85 468.82 93.85 468.82 103.91 434.24 103.91"/><path class="e" d="M516.17,103.91l-9.54-15.56h-6.83v15.56h-11.34V56.85h36.44l.29,.69c1.58,3.73,2.52,9.42,2.52,15.23,0,5.42-.89,10.98-2.38,14.87l-.28,.72h-6.11l9.67,15.56h-12.44Zm-.3-25.17c.33-1.49,.51-3.6,.51-6.05s-.18-4.62-.5-6.05h-16.08v12.1h16.07Z"/><path class="e" d="M566.92,104.81c-6.48,0-13.6-.85-19.04-2.28l-.84-.22V58.45l.84-.22c5.45-1.43,12.57-2.28,19.04-2.28s13.66,.85,19.11,2.28l.84,.22v43.86l-.84,.22c-5.45,1.43-12.59,2.28-19.11,2.28Zm8.61-10.12v-28.61h-17.15v28.61h17.15Z"/><polygon class="e" points="635.7 103.91 618.49 76.7 618.49 103.91 607.28 103.91 607.28 56.85 618.69 56.85 635.9 84.06 635.9 56.85 647.11 56.85 647.11 103.91 635.7 103.91"/></g><g><path class="d" d="M343.52,146.32v4.97h-19.58v-28.26h5.73v23.29h13.85Z"/><path class="d" d="M361.24,151.29v-28.26h5.77v28.26h-5.77Z"/><path class="d" d="M391.88,127.96v6.62h11.55v4.76h-11.55v11.95h-5.73v-28.26h19.98v4.92h-14.25Z"/><path class="d" d="M429.94,127.96v6.62h12.15v4.76h-12.15v7.02h14.81v4.92h-20.38v-28.26h20.38v4.92h-14.81Z"/></g></g></g></g></svg>